Coordinates
version=1
nRows=10
nColumns=33
inDegrees=yes

Units are S.I. units (second, meters, Newtons, ...)
Angles are in degrees.

endheader
time	ground_thorax_rot_x	ground_thorax_rot_y	ground_thorax_rot_z	ground_thorax_tx	ground_thorax_ty	ground_thorax_tz	clav_prot_r	clav_elev_r	scapula_abduction_r	scapula_elevation_r	scapula_upward_rot_r	scapula_winging_r	shoulder_elv_r	plane_of_elev_r	axial_rot_r	elbow_flexion_r	pro_sup_r	wrist_flex_r	wrist_dev_r	clav_prot_l	clav_elev_l	scapula_abduction_l	scapula_elevation_l	scapula_upward_rot_l	scapula_winging_l	shoulder_elv_l	plane_of_elev_l	axial_rot_l	elbow_flexion_l	pro_sup_l	wrist_flex_l	wrist_dev_l
      5.46000000	     38.55708064	      7.89153917	     10.72573830	   -223.10521309	    838.33396901	      6.58994558	     13.41642811	     36.20476717	     37.23730392	     45.00000000	    -45.00000000	   2075.57833891	  -3704.40342696	    142.50764938	    179.99999979	   1813.35097996	     52.11277210	     23.72484096	      7.64691072	      8.74033564	    -45.00000000	    -38.66300978	     45.00000000	    -45.00000000	  -2423.48656060	   -450.37020639	    134.58383069	   -179.99999979	    372.09694383	     40.05430112	      4.76876179	    -22.25857381
      5.47000000	     38.41201783	      8.16693735	     11.09775970	   -220.86807466	    837.27459526	      6.50924542	     13.04362090	     36.00510420	     37.28716150	     45.00000000	    -45.00000000	   2075.73330879	  -3704.48504279	    142.63550121	    179.99999979	   1813.37810750	     51.49469033	     23.68080936	      7.81179391	      8.83601476	    -45.00000000	    -38.79392599	     45.00000000	    -45.00000000	  -2423.56725140	   -450.31849043	    134.49039745	   -179.99999979	    372.01127896	     39.06793132	      5.11164523	    -22.26798317
      5.48000000	     38.32354589	      8.39113149	     11.44079779	   -218.51884768	    836.12387380	      6.41584959	     13.02488304	     35.99153555	     37.32753452	     45.00000000	    -45.00000000	   2075.86385320	  -3704.47626798	    142.69553324	    179.99999979	   1813.44088484	     50.88704260	     23.68171886	      8.00636661	      8.79739130	    -45.00000000	    -38.81953252	     45.00000000	    -45.00000000	  -2423.77500181	   -450.31789334	    134.50305762	   -179.99999979	    372.02713078	     38.09783306	      5.37684603	    -22.24426095
      5.49000000	     38.36053196	      8.39034343	     11.67796641	   -216.04309954	    834.87076815	      6.30980667	     13.55389718	     36.23206757	     37.62701897	     45.00000000	    -45.00000000	   2075.71664676	  -3704.57854142	    142.40874449	    179.99999979	   1813.26021738	     50.20363146	     23.71674256	      8.34143317	      8.63898807	    -45.00000000	    -38.65596498	     45.00000000	    -45.00000000	  -2424.01246667	   -450.38610471	    134.36471256	   -179.99999979	    371.82733920	     36.91061943	      5.58583861	    -22.11352908
      5.50000000	     38.21876690	      8.61992218	     12.07497959	   -213.44950422	    833.51777613	      6.19264010	     13.19145227	     36.06504503	     37.73434130	     45.00000000	    -45.00000000	   2075.90023339	  -3704.69141499	    142.54545423	    179.99999979	   1813.31656351	     49.54449389	     23.67399672	      8.53779183	      8.69406605	    -45.00000000	    -38.80579821	     45.00000000	    -45.00000000	  -2424.14193933	   -450.39368242	    134.32921578	   -179.99999979	    371.76608755	     35.88565776	      5.96258075	    -22.10017488
      5.51000000	     38.21677658	      8.65818070	     12.32062528	   -210.73801519	    832.06490654	      6.06820800	     13.81685750	     36.32669756	     37.95247289	     45.00000000	    -45.00000000	   2075.83993222	  -3704.78754542	    142.27928817	    179.99999979	   1813.12169203	     48.82118211	     23.68660907	      8.89466814	      8.53429395	    -45.00000000	    -38.65298663	     45.00000000	    -45.00000000	  -2424.47317531	   -450.49154260	    134.26490935	   -179.99999979	    371.56068814	     34.62928656	      6.19573791	    -21.95940478
      5.52000000	     38.09162291	      8.91660058	     12.74759212	   -207.90573054	    830.51056564	      5.93787891	     13.46129361	     36.16820860	     38.05297178	     45.00000000	    -45.00000000	   2076.00725276	  -3704.92440629	    142.38948658	    179.99999979	   1813.09606294	     48.15004148	     23.62760495	      9.13256962	      8.61842830	    -45.00000000	    -38.75549832	     45.00000000	    -45.00000000	  -2424.60797318	   -450.53157934	    134.16917277	   -179.99999979	    371.41995993	     33.59485448	      6.59711606	    -21.90866572
      5.53000000	     37.96784822	      9.16684439	     13.12870069	   -204.95951767	    828.85651485	      5.80364893	     13.38871345	     36.13178047	     38.10695588	     45.00000000	    -45.00000000	   2076.18465651	  -3705.01666900	    142.44951393	    179.99999979	   1813.09172139	     47.50692218	     23.59887778	      9.39703717	      8.65873241	    -45.00000000	    -38.78189162	     45.00000000	    -45.00000000	  -2424.83715324	   -450.57854940	    134.12066458	   -179.99999979	    371.33539191	     32.62635318	      6.93510344	    -21.83678433
      5.54000000	     37.97842236	      9.19660642	     13.33771563	   -201.90443440	    827.10435923	      5.66726900	     13.95793765	     36.36211621	     38.39322047	     45.00000000	    -45.00000000	   2076.12268266	  -3705.18538314	    142.24852207	    179.99999979	   1812.89916974	     46.82209616	     23.57664699	      9.75875294	      8.42335590	    -45.00000000	    -38.69047022	     45.00000000	    -45.00000000	  -2425.20344518	   -450.72051215	    134.06936376	   -179.99999979	    371.18262778	     31.52635303	      7.19691986	    -21.71039818
      5.55000000	     37.92339480	      9.26930886	     13.66079187	   -198.74363276	    825.25533477	      5.53017941	     14.47145797	     36.57935492	     38.63327188	     45.00000000	    -45.00000000	   2076.15872543	  -3705.34292243	    142.14692915	    179.99999979	   1812.80837865	     46.05231323	     23.54701007	     10.10399322	      8.20694039	    -45.00000000	    -38.61937043	     45.00000000	    -45.00000000	  -2425.55760345	   -450.80233118	    134.10871077	   -179.99999979	    371.02930739	     30.29068395	      7.49966071	    -21.57876690
